# Blender v2.93.8 OBJ File: 'test_level.blend'
# www.blender.org
mtllib test_level.mtl
o Cube
v 1.000000 0.000000 0.000000
v -2.000000 0.000000 -3.000000
v -2.000000 0.000000 1.000000
v -3.000000 0.000000 -3.000000
v 2.000000 -3.000000 3.000000
v -1.000000 0.000000 0.000000
v -2.000000 0.000000 2.000000
v 1.000000 0.000000 2.000000
v 1.000000 0.000000 -1.000000
v 3.000000 -1.000000 -2.000000
v 0.000000 0.000000 0.000000
v -1.000000 0.000000 1.000000
v 2.000000 0.000000 0.000000
v 1.000000 0.000000 1.000000
v 0.000000 0.000000 1.000000
v -2.000000 -1.000000 -3.000000
v -3.000000 0.000000 -1.000000
v -3.000000 -3.000000 2.000000
v 1.000000 0.000000 -2.000000
v -1.000000 0.000000 -1.000000
v 0.000000 0.000000 -1.000000
v 2.000000 0.000000 -2.000000
v 2.000000 0.000000 -1.000000
v 2.000000 0.000000 2.000000
v -2.000000 0.000000 3.000000
v -3.000000 -3.000000 3.000000
v -1.000000 0.000000 2.000000
v -3.000000 0.000000 2.000000
v 2.000000 0.000000 3.000000
v 0.000000 0.000000 3.000000
v 0.000000 0.000000 2.000000
v -3.000000 0.000000 1.000000
v 3.000000 -2.000000 3.000000
v -2.000000 -3.000000 -3.000000
v -3.000000 -1.000000 2.000000
v 2.000000 -1.000000 -3.000000
v -2.000000 0.000000 -1.000000
v -2.000000 0.000000 0.000000
v -1.000000 -2.000000 3.000000
v -2.000000 0.000000 -2.000000
v 3.000000 0.000000 -3.000000
v -1.000000 0.000000 -2.000000
v 0.000000 0.000000 -2.000000
v -1.000000 -3.000000 -3.000000
v 1.000000 -1.000000 -3.000000
v 2.000000 0.000000 1.000000
v 3.000000 0.000000 1.000000
v 3.000000 -2.000000 2.000000
v 3.000000 0.000000 0.000000
v 3.000000 -1.000000 1.000000
v -3.000000 -3.000000 -3.000000
v 3.000000 -2.000000 -2.000000
v -3.000000 0.000000 -2.000000
v 2.000000 0.000000 -3.000000
v 1.000000 0.000000 -3.000000
v 0.000000 0.000000 -3.000000
v -1.000000 0.000000 -3.000000
v -3.000000 -2.000000 -1.000000
v 3.000000 -1.000000 -3.000000
v 0.000000 -2.000000 -3.000000
v 1.000000 -2.000000 -3.000000
v 1.000000 -3.000000 -3.000000
v 0.000000 -1.000000 -3.000000
v -1.000000 -1.000000 -3.000000
v 2.000000 -3.000000 -3.000000
v 0.000000 -3.000000 -3.000000
v -2.000000 -2.000000 -3.000000
v -1.000000 -2.000000 -3.000000
v 2.000000 -2.000000 -3.000000
v -3.000000 -1.000000 -1.000000
v 3.000000 -3.000000 -2.000000
v 3.000000 -3.000000 -1.000000
v -3.000000 -3.000000 1.000000
v -3.000000 -1.000000 3.000000
v -3.000000 -1.000000 0.000000
v -3.000000 0.000000 0.000000
v -3.000000 -2.000000 -2.000000
v -3.000000 -2.000000 -3.000000
v -3.000000 -1.000000 -3.000000
v -3.000000 -1.000000 -2.000000
v -3.000000 0.000000 3.000000
v -3.000000 -2.000000 1.000000
v -3.000000 -1.000000 1.000000
v -3.000000 -2.000000 0.000000
v -3.000000 -2.000000 2.000000
v -3.000000 -3.000000 -1.000000
v -3.000000 -3.000000 0.000000
v 0.000000 -1.000000 3.000000
v -3.000000 -3.000000 -2.000000
v 3.000000 -3.000000 3.000000
v 0.000000 -2.000000 3.000000
v 2.000000 -2.000000 3.000000
v -1.000000 0.000000 3.000000
v 0.000000 -3.000000 3.000000
v 1.000000 0.000000 3.000000
v 3.000000 0.000000 3.000000
v -2.000000 -2.000000 3.000000
v -2.000000 -1.000000 3.000000
v -1.000000 -1.000000 3.000000
v 1.000000 -2.000000 3.000000
v 1.000000 -1.000000 3.000000
v 2.000000 -1.000000 3.000000
v 1.000000 -3.000000 3.000000
v -1.000000 -3.000000 3.000000
v 3.000000 -2.000000 -1.000000
v -2.000000 -3.000000 3.000000
v 3.000000 -2.000000 1.000000
v 3.000000 -1.000000 3.000000
v -3.000000 -2.000000 3.000000
v 3.000000 0.000000 2.000000
v 3.000000 -2.000000 -3.000000
v 3.000000 -3.000000 -3.000000
v 3.000000 0.000000 -1.000000
v 3.000000 0.000000 -2.000000
v 3.000000 -1.000000 2.000000
v 3.000000 -2.000000 0.000000
v 3.000000 -1.000000 0.000000
v 3.000000 -1.000000 -1.000000
v 3.000000 -3.000000 0.000000
v 3.000000 -3.000000 1.000000
v 3.000000 -3.000000 2.000000
vt 0.125098 0.875098
vt 0.187402 0.875098
vt 0.187402 0.937402
vt 0.125098 0.937402
vt 0.125098 0.875098
vt 0.187402 0.875098
vt 0.187402 0.937402
vt 0.125098 0.937402
vt 0.125098 0.875098
vt 0.187402 0.875098
vt 0.187402 0.937402
vt 0.125098 0.937402
vt 0.125098 0.875098
vt 0.187402 0.875098
vt 0.187402 0.937402
vt 0.125098 0.937402
vt 0.125098 0.875098
vt 0.187402 0.875098
vt 0.187402 0.937402
vt 0.125098 0.937402
vt 0.125098 0.875098
vt 0.187402 0.875098
vt 0.187402 0.937402
vt 0.125098 0.937402
vt 0.125098 0.875098
vt 0.187402 0.875098
vt 0.187402 0.937402
vt 0.125098 0.937402
vt 0.125098 0.875098
vt 0.187402 0.875098
vt 0.187402 0.937402
vt 0.125098 0.937402
vt 0.125098 0.875098
vt 0.187402 0.875098
vt 0.187402 0.937402
vt 0.125098 0.937402
vt 0.125098 0.875098
vt 0.187402 0.875098
vt 0.187402 0.937402
vt 0.125098 0.937402
vt 0.125098 0.875098
vt 0.187402 0.875098
vt 0.187402 0.937402
vt 0.125098 0.937402
vt 0.125098 0.875098
vt 0.187402 0.875098
vt 0.187402 0.937402
vt 0.125098 0.937402
vt 0.125098 0.875098
vt 0.187402 0.875098
vt 0.187402 0.937402
vt 0.125098 0.937402
vt 0.125098 0.875098
vt 0.187402 0.875098
vt 0.187402 0.937402
vt 0.125098 0.937402
vt 0.125098 0.875098
vt 0.187402 0.875098
vt 0.187402 0.937402
vt 0.125098 0.937402
vt 0.125098 0.875098
vt 0.187402 0.875098
vt 0.187402 0.937402
vt 0.125098 0.937402
vt 0.125098 0.875098
vt 0.187402 0.875098
vt 0.187402 0.937402
vt 0.125098 0.937402
vt 0.125098 0.875098
vt 0.187402 0.875098
vt 0.187402 0.937402
vt 0.125098 0.937402
vt 0.125098 0.875098
vt 0.187402 0.875098
vt 0.187402 0.937402
vt 0.125098 0.937402
vt 0.125098 0.875098
vt 0.187402 0.875098
vt 0.187402 0.937402
vt 0.125098 0.937402
vt 0.125098 0.875098
vt 0.187402 0.875098
vt 0.187402 0.937402
vt 0.125098 0.937402
vt 0.125098 0.875098
vt 0.187402 0.875098
vt 0.187402 0.937402
vt 0.125098 0.937402
vt 0.125098 0.875098
vt 0.187402 0.875098
vt 0.187402 0.937402
vt 0.125098 0.937402
vt 0.125098 0.875098
vt 0.187402 0.875098
vt 0.187402 0.937402
vt 0.125098 0.937402
vt 0.125098 0.875098
vt 0.187402 0.875098
vt 0.187402 0.937402
vt 0.125098 0.937402
vt 0.125098 0.875098
vt 0.187402 0.875098
vt 0.187402 0.937402
vt 0.125098 0.937402
vt 0.125098 0.875098
vt 0.187402 0.875098
vt 0.187402 0.937402
vt 0.125098 0.937402
vt 0.125098 0.875098
vt 0.187402 0.875098
vt 0.187402 0.937402
vt 0.125098 0.937402
vt 0.125098 0.875098
vt 0.187402 0.875098
vt 0.187402 0.937402
vt 0.125098 0.937402
vt 0.125098 0.875098
vt 0.187402 0.875098
vt 0.187402 0.937402
vt 0.125098 0.937402
vt 0.125098 0.875098
vt 0.187402 0.875098
vt 0.187402 0.937402
vt 0.125098 0.937402
vt 0.125098 0.875098
vt 0.187402 0.875098
vt 0.187402 0.937402
vt 0.125098 0.937402
vt 0.125098 0.875098
vt 0.187402 0.875098
vt 0.187402 0.937402
vt 0.125098 0.937402
vt 0.125098 0.875098
vt 0.187402 0.875098
vt 0.187402 0.937402
vt 0.125098 0.937402
vt 0.125098 0.875098
vt 0.187402 0.875098
vt 0.187402 0.937402
vt 0.125098 0.937402
vt 0.125098 0.875098
vt 0.187402 0.875098
vt 0.187402 0.937402
vt 0.125098 0.937402
vt 0.125098 0.812598
vt 0.187402 0.812598
vt 0.187402 0.874902
vt 0.125098 0.874902
vt 0.125098 0.812598
vt 0.187402 0.812598
vt 0.187402 0.874902
vt 0.125098 0.874902
vt 0.125098 0.812598
vt 0.187402 0.812598
vt 0.187402 0.874902
vt 0.125098 0.874902
vt 0.125098 0.812598
vt 0.187402 0.812598
vt 0.187402 0.874902
vt 0.125098 0.874902
vt 0.125098 0.812598
vt 0.187402 0.812598
vt 0.187402 0.874902
vt 0.125098 0.874902
vt 0.125098 0.812598
vt 0.187402 0.812598
vt 0.187402 0.874902
vt 0.125098 0.874902
vt 0.062598 0.937598
vt 0.124902 0.937598
vt 0.124902 0.999902
vt 0.062598 0.999902
vt 0.062598 0.937598
vt 0.124902 0.937598
vt 0.124902 0.999902
vt 0.062598 0.999902
vt 0.062598 0.937598
vt 0.124902 0.937598
vt 0.124902 0.999902
vt 0.062598 0.999902
vt 0.062598 0.937598
vt 0.124902 0.937598
vt 0.124902 0.999902
vt 0.062598 0.999902
vt 0.062598 0.937598
vt 0.124902 0.937598
vt 0.124902 0.999902
vt 0.062598 0.999902
vt 0.062598 0.937598
vt 0.124902 0.937598
vt 0.124902 0.999902
vt 0.062598 0.999902
vt 0.062598 0.937598
vt 0.124902 0.937598
vt 0.124902 0.999902
vt 0.062598 0.999902
vt 0.062598 0.937598
vt 0.124902 0.937598
vt 0.124902 0.999902
vt 0.062598 0.999902
vt 0.062598 0.937598
vt 0.124902 0.937598
vt 0.124902 0.999902
vt 0.062598 0.999902
vt 0.062598 0.937598
vt 0.124902 0.937598
vt 0.124902 0.999902
vt 0.062598 0.999902
vt 0.062598 0.937598
vt 0.124902 0.937598
vt 0.124902 0.999902
vt 0.062598 0.999902
vt 0.062598 0.937598
vt 0.124902 0.937598
vt 0.124902 0.999902
vt 0.062598 0.999902
vt 0.125098 0.812598
vt 0.187402 0.812598
vt 0.187402 0.874902
vt 0.125098 0.874902
vt 0.125098 0.812598
vt 0.187402 0.812598
vt 0.187402 0.874902
vt 0.125098 0.874902
vt 0.125098 0.812598
vt 0.187402 0.812598
vt 0.187402 0.874902
vt 0.125098 0.874902
vt 0.125098 0.812598
vt 0.187402 0.812598
vt 0.187402 0.874902
vt 0.125098 0.874902
vt 0.125098 0.812598
vt 0.187402 0.812598
vt 0.187402 0.874902
vt 0.125098 0.874902
vt 0.125098 0.812598
vt 0.187402 0.812598
vt 0.187402 0.874902
vt 0.125098 0.874902
vt 0.062598 0.937598
vt 0.124902 0.937598
vt 0.124902 0.999902
vt 0.062598 0.999902
vt 0.062598 0.937598
vt 0.124902 0.937598
vt 0.124902 0.999902
vt 0.062598 0.999902
vt 0.062598 0.937598
vt 0.124902 0.937598
vt 0.124902 0.999902
vt 0.062598 0.999902
vt 0.062598 0.937598
vt 0.124902 0.937598
vt 0.124902 0.999902
vt 0.062598 0.999902
vt 0.062598 0.937598
vt 0.124902 0.937598
vt 0.124902 0.999902
vt 0.062598 0.999902
vt 0.062598 0.937598
vt 0.124902 0.937598
vt 0.124902 0.999902
vt 0.062598 0.999902
vt 0.062598 0.937598
vt 0.124902 0.937598
vt 0.124902 0.999902
vt 0.062598 0.999902
vt 0.062598 0.937598
vt 0.124902 0.937598
vt 0.124902 0.999902
vt 0.062598 0.999902
vt 0.062598 0.937598
vt 0.124902 0.937598
vt 0.124902 0.999902
vt 0.062598 0.999902
vt 0.062598 0.937598
vt 0.124902 0.937598
vt 0.124902 0.999902
vt 0.062598 0.999902
vt 0.062598 0.937598
vt 0.124902 0.937598
vt 0.124902 0.999902
vt 0.062598 0.999902
vt 0.062598 0.937598
vt 0.124902 0.937598
vt 0.124902 0.999902
vt 0.062598 0.999902
vt 0.125098 0.812598
vt 0.187402 0.812598
vt 0.187402 0.874902
vt 0.125098 0.874902
vt 0.125098 0.812598
vt 0.187402 0.812598
vt 0.187402 0.874902
vt 0.125098 0.874902
vt 0.125098 0.812598
vt 0.187402 0.812598
vt 0.187402 0.874902
vt 0.125098 0.874902
vt 0.125098 0.812598
vt 0.187402 0.812598
vt 0.187402 0.874902
vt 0.125098 0.874902
vt 0.125098 0.812598
vt 0.187402 0.812598
vt 0.187402 0.874902
vt 0.125098 0.874902
vt 0.125098 0.812598
vt 0.187402 0.812598
vt 0.187402 0.874902
vt 0.125098 0.874902
vt 0.062598 0.937598
vt 0.124902 0.937598
vt 0.124902 0.999902
vt 0.062598 0.999902
vt 0.062598 0.937598
vt 0.124902 0.937598
vt 0.124902 0.999902
vt 0.062598 0.999902
vt 0.062598 0.937598
vt 0.124902 0.937598
vt 0.124902 0.999902
vt 0.062598 0.999902
vt 0.062598 0.937598
vt 0.124902 0.937598
vt 0.124902 0.999902
vt 0.062598 0.999902
vt 0.062598 0.937598
vt 0.124902 0.937598
vt 0.124902 0.999902
vt 0.062598 0.999902
vt 0.062598 0.937598
vt 0.124902 0.937598
vt 0.124902 0.999902
vt 0.062598 0.999902
vt 0.062598 0.937598
vt 0.124902 0.937598
vt 0.124902 0.999902
vt 0.062598 0.999902
vt 0.062598 0.937598
vt 0.124902 0.937598
vt 0.124902 0.999902
vt 0.062598 0.999902
vt 0.062598 0.937598
vt 0.124902 0.937598
vt 0.124902 0.999902
vt 0.062598 0.999902
vt 0.062598 0.937598
vt 0.124902 0.937598
vt 0.124902 0.999902
vt 0.062598 0.999902
vt 0.062598 0.937598
vt 0.124902 0.937598
vt 0.124902 0.999902
vt 0.062598 0.999902
vt 0.062598 0.937598
vt 0.124902 0.937598
vt 0.124902 0.999902
vt 0.062598 0.999902
vt 0.125098 0.812598
vt 0.187402 0.812598
vt 0.187402 0.874902
vt 0.125098 0.874902
vt 0.125098 0.812598
vt 0.187402 0.812598
vt 0.187402 0.874902
vt 0.125098 0.874902
vt 0.125098 0.812598
vt 0.187402 0.812598
vt 0.187402 0.874902
vt 0.125098 0.874902
vt 0.125098 0.812598
vt 0.187402 0.812598
vt 0.187402 0.874902
vt 0.125098 0.874902
vt 0.125098 0.812598
vt 0.187402 0.812598
vt 0.187402 0.874902
vt 0.125098 0.874902
vt 0.125098 0.812598
vt 0.187402 0.812598
vt 0.187402 0.874902
vt 0.125098 0.874902
vt 0.062598 0.937598
vt 0.124902 0.937598
vt 0.124902 0.999902
vt 0.062598 0.999902
vt 0.062598 0.937598
vt 0.124902 0.937598
vt 0.124902 0.999902
vt 0.062598 0.999902
vt 0.062598 0.937598
vt 0.124902 0.937598
vt 0.124902 0.999902
vt 0.062598 0.999902
vt 0.062598 0.937598
vt 0.124902 0.937598
vt 0.124902 0.999902
vt 0.062598 0.999902
vt 0.062598 0.937598
vt 0.124902 0.937598
vt 0.124902 0.999902
vt 0.062598 0.999902
vt 0.062598 0.937598
vt 0.124902 0.937598
vt 0.124902 0.999902
vt 0.062598 0.999902
vt 0.062598 0.937598
vt 0.124902 0.937598
vt 0.124902 0.999902
vt 0.062598 0.999902
vt 0.062598 0.937598
vt 0.124902 0.937598
vt 0.124902 0.999902
vt 0.062598 0.999902
vt 0.062598 0.937598
vt 0.124902 0.937598
vt 0.124902 0.999902
vt 0.062598 0.999902
vt 0.062598 0.937598
vt 0.124902 0.937598
vt 0.124902 0.999902
vt 0.062598 0.999902
vt 0.062598 0.937598
vt 0.124902 0.937598
vt 0.124902 0.999902
vt 0.062598 0.999902
vt 0.062598 0.937598
vt 0.124902 0.937598
vt 0.124902 0.999902
vt 0.062598 0.999902
vn 0.0000 1.0000 0.0000
vn 0.0000 0.0000 -1.0000
vn -1.0000 0.0000 0.0000
vn 0.0000 0.0000 1.0000
vn 1.0000 0.0000 0.0000
usemtl level_map
s off
f 1/1/1 11/2/1 15/3/1 14/4/1
f 11/5/1 6/6/1 12/7/1 15/8/1
f 21/9/1 20/10/1 6/11/1 11/12/1
f 9/13/1 21/14/1 11/15/1 1/16/1
f 23/17/1 9/18/1 1/19/1 13/20/1
f 13/21/1 1/22/1 14/23/1 46/24/1
f 6/25/1 38/26/1 3/27/1 12/28/1
f 20/29/1 37/30/1 38/31/1 6/32/1
f 42/33/1 40/34/1 37/35/1 20/36/1
f 43/37/1 42/38/1 20/39/1 21/40/1
f 19/41/1 43/42/1 21/43/1 9/44/1
f 22/45/1 19/46/1 9/47/1 23/48/1
f 46/49/1 14/50/1 8/51/1 24/52/1
f 14/53/1 15/54/1 31/55/1 8/56/1
f 15/57/1 12/58/1 27/59/1 31/60/1
f 12/61/1 3/62/1 7/63/1 27/64/1
f 24/65/1 8/66/1 95/67/1 29/68/1
f 8/69/1 31/70/1 30/71/1 95/72/1
f 31/73/1 27/74/1 93/75/1 30/76/1
f 27/77/1 7/78/1 25/79/1 93/80/1
f 7/81/1 28/82/1 81/83/1 25/84/1
f 3/85/1 32/86/1 28/87/1 7/88/1
f 38/89/1 76/90/1 32/91/1 3/92/1
f 37/93/1 17/94/1 76/95/1 38/96/1
f 40/97/1 53/98/1 17/99/1 37/100/1
f 2/101/1 4/102/1 53/103/1 40/104/1
f 57/105/1 2/106/1 40/107/1 42/108/1
f 56/109/1 57/110/1 42/111/1 43/112/1
f 55/113/1 56/114/1 43/115/1 19/116/1
f 54/117/1 55/118/1 19/119/1 22/120/1
f 41/121/1 54/122/1 22/123/1 114/124/1
f 114/125/1 22/126/1 23/127/1 113/128/1
f 113/129/1 23/130/1 13/131/1 49/132/1
f 49/133/1 13/134/1 46/135/1 47/136/1
f 47/137/1 46/138/1 24/139/1 110/140/1
f 110/141/1 24/142/1 29/143/1 96/144/1
f 59/145/2 36/146/2 54/147/2 41/148/2
f 36/149/2 45/150/2 55/151/2 54/152/2
f 45/153/2 63/154/2 56/155/2 55/156/2
f 63/157/2 64/158/2 57/159/2 56/160/2
f 64/161/2 16/162/2 2/163/2 57/164/2
f 16/165/2 79/166/2 4/167/2 2/168/2
f 111/169/2 69/170/2 36/171/2 59/172/2
f 69/173/2 61/174/2 45/175/2 36/176/2
f 61/177/2 60/178/2 63/179/2 45/180/2
f 60/181/2 68/182/2 64/183/2 63/184/2
f 68/185/2 67/186/2 16/187/2 64/188/2
f 67/189/2 78/190/2 79/191/2 16/192/2
f 34/193/2 51/194/2 78/195/2 67/196/2
f 44/197/2 34/198/2 67/199/2 68/200/2
f 66/201/2 44/202/2 68/203/2 60/204/2
f 62/205/2 66/206/2 60/207/2 61/208/2
f 65/209/2 62/210/2 61/211/2 69/212/2
f 112/213/2 65/214/2 69/215/2 111/216/2
f 79/217/3 80/218/3 53/219/3 4/220/3
f 80/221/3 70/222/3 17/223/3 53/224/3
f 70/225/3 75/226/3 76/227/3 17/228/3
f 75/229/3 83/230/3 32/231/3 76/232/3
f 83/233/3 35/234/3 28/235/3 32/236/3
f 35/237/3 74/238/3 81/239/3 28/240/3
f 78/241/3 77/242/3 80/243/3 79/244/3
f 77/245/3 58/246/3 70/247/3 80/248/3
f 58/249/3 84/250/3 75/251/3 70/252/3
f 84/253/3 82/254/3 83/255/3 75/256/3
f 82/257/3 85/258/3 35/259/3 83/260/3
f 85/261/3 109/262/3 74/263/3 35/264/3
f 18/265/3 26/266/3 109/267/3 85/268/3
f 73/269/3 18/270/3 85/271/3 82/272/3
f 87/273/3 73/274/3 82/275/3 84/276/3
f 86/277/3 87/278/3 84/279/3 58/280/3
f 89/281/3 86/282/3 58/283/3 77/284/3
f 51/285/3 89/286/3 77/287/3 78/288/3
f 74/289/4 98/290/4 25/291/4 81/292/4
f 98/293/4 99/294/4 93/295/4 25/296/4
f 99/297/4 88/298/4 30/299/4 93/300/4
f 88/301/4 101/302/4 95/303/4 30/304/4
f 101/305/4 102/306/4 29/307/4 95/308/4
f 102/309/4 108/310/4 96/311/4 29/312/4
f 109/313/4 97/314/4 98/315/4 74/316/4
f 97/317/4 39/318/4 99/319/4 98/320/4
f 39/321/4 91/322/4 88/323/4 99/324/4
f 91/325/4 100/326/4 101/327/4 88/328/4
f 100/329/4 92/330/4 102/331/4 101/332/4
f 92/333/4 33/334/4 108/335/4 102/336/4
f 5/337/4 90/338/4 33/339/4 92/340/4
f 103/341/4 5/342/4 92/343/4 100/344/4
f 94/345/4 103/346/4 100/347/4 91/348/4
f 104/349/4 94/350/4 91/351/4 39/352/4
f 106/353/4 104/354/4 39/355/4 97/356/4
f 26/357/4 106/358/4 97/359/4 109/360/4
f 108/361/5 115/362/5 110/363/5 96/364/5
f 115/365/5 50/366/5 47/367/5 110/368/5
f 50/369/5 117/370/5 49/371/5 47/372/5
f 117/373/5 118/374/5 113/375/5 49/376/5
f 118/377/5 10/378/5 114/379/5 113/380/5
f 10/381/5 59/382/5 41/383/5 114/384/5
f 33/385/5 48/386/5 115/387/5 108/388/5
f 48/389/5 107/390/5 50/391/5 115/392/5
f 107/393/5 116/394/5 117/395/5 50/396/5
f 116/397/5 105/398/5 118/399/5 117/400/5
f 105/401/5 52/402/5 10/403/5 118/404/5
f 52/405/5 111/406/5 59/407/5 10/408/5
f 71/409/5 112/410/5 111/411/5 52/412/5
f 72/413/5 71/414/5 52/415/5 105/416/5
f 119/417/5 72/418/5 105/419/5 116/420/5
f 120/421/5 119/422/5 116/423/5 107/424/5
f 121/425/5 120/426/5 107/427/5 48/428/5
f 90/429/5 121/430/5 48/431/5 33/432/5
